HIERARCHY
ROOT Hips
{
  OFFSET 0.000000 0.000000 0.000000
  CHANNELS 6 Xposition Yposition Zposition Zrotation Xrotation Yrotation
  JOINT RightUpLeg
  {
    OFFSET -5.487494 -9.381747 0.094328
    CHANNELS 3 Zrotation Xrotation Yrotation
    JOINT RightLeg
    {
      OFFSET -7.983605 -37.352596 8.068061
      CHANNELS 3 Zrotation Xrotation Yrotation
      JOINT RightFoot
      {
        OFFSET -0.145139 -37.217922 -19.618044
        CHANNELS 3 Zrotation Xrotation Yrotation
        JOINT RightToeBase
        {
          OFFSET -7.215506 -6.250739 11.370057
          CHANNELS 3 Zrotation Xrotation Yrotation
          End Site
          {
            OFFSET 0.000000 4.000000 0.000000
          }
        }
      }
    }
  }
  JOINT LeftUpLeg
  {
    OFFSET 6.296491 -8.235275 0.748582
    CHANNELS 3 Zrotation Xrotation Yrotation
    JOINT LeftLeg
    {
      OFFSET 11.562640 -33.558445 17.531740
      CHANNELS 3 Zrotation Xrotation Yrotation
      JOINT LeftFoot
      {
        OFFSET -2.750175 -41.732079 -5.463530
        CHANNELS 3 Zrotation Xrotation Yrotation
        JOINT LeftToeBase
        {
          OFFSET 8.698879 -4.074788 10.392057
          CHANNELS 3 Zrotation Xrotation Yrotation
          End Site
          {
            OFFSET 0.000000 4.000000 0.000000
          }
        }
      }
    }
  }
  JOINT Spine
  {
    OFFSET -0.257888 12.400627 -4.650802
    CHANNELS 3 Zrotation Xrotation Yrotation
    JOINT Spine1
    {
      OFFSET -2.014547 13.973212 2.136809
      CHANNELS 3 Zrotation Xrotation Yrotation
      JOINT Spine2
      {
        OFFSET -1.235562 4.289031 3.308109
        CHANNELS 3 Zrotation Xrotation Yrotation
        JOINT Neck
        {
          OFFSET -5.908795 21.435987 -0.379425
          CHANNELS 3 Zrotation Xrotation Yrotation
          JOINT Head
          {
            OFFSET -4.198195 5.803156 8.046883
            CHANNELS 3 Zrotation Xrotation Yrotation
            End Site
            {
              OFFSET 0.000000 4.000000 0.000000
            }
          }
        }
        JOINT RightShoulder
        {
          OFFSET -10.624613 9.879911 -2.879685
          CHANNELS 3 Zrotation Xrotation Yrotation
          JOINT RightArm
          {
            OFFSET -12.256959 -3.839350 -0.320675
            CHANNELS 3 Zrotation Xrotation Yrotation
            JOINT RightForeArm
            {
              OFFSET -2.786326 -25.423409 5.026492
              CHANNELS 3 Zrotation Xrotation Yrotation
              JOINT RightHand
              {
                OFFSET 7.240117 -17.688488 18.978210
                CHANNELS 3 Zrotation Xrotation Yrotation
                End Site
                {
                  OFFSET 0.000000 4.000000 0.000000
                }
              }
            }
          }
        }
        JOINT LeftShoulder
        {
          OFFSET 4.218663 13.211573 0.342851
          CHANNELS 3 Zrotation Xrotation Yrotation
          JOINT LeftArm
          {
            OFFSET 13.538692 1.764667 2.506725
            CHANNELS 3 Zrotation Xrotation Yrotation
            JOINT LeftForeArm
            {
              OFFSET 10.680405 -22.462917 0.145425
              CHANNELS 3 Zrotation Xrotation Yrotation
              JOINT LeftHand
              {
                OFFSET -9.091269 -17.490213 17.863834
                CHANNELS 3 Zrotation Xrotation Yrotation
                End Site
                {
                  OFFSET 0.000000 4.000000 0.000000
                }
              }
            }
          }
        }
      }
    }
  }
}
MOTION
Frames: 7
Frame Time: 0.050000
-113.345276 -0.489593 -209.931534 -4.378738 3.110435 -1.475500 -0.976734 12.890271 -2.428507 -1.962346 -6.427184 7.584582 15.659312 1.267368 -0.442551 -8.807656 -11.507235 -2.840018 -1.708525 -0.360913 -0.762553 15.430188 -6.032475 2.188667 -13.862728 0.968190 -17.004450 3.737401 4.060985 18.301604 1.236439 -6.638573 1.433549 1.714640 -0.216375 0.100045 -10.465231 0.655416 -0.838274 8.348692 -2.418603 1.995271 3.883039 5.588077 -1.400967 8.923054 8.643841 -14.419055 -0.855961 8.359622 13.991357 -15.858406 6.148945 -13.331563 22.321231 -14.785843 17.169104 1.500580 7.196436 -7.851041 3.095506 -6.786378 7.570992 18.641659 14.635018 5.261300 -11.414755 -10.052663 -6.531699
-117.043129 -1.120085 -215.328461 -3.510264 1.588228 -1.242422 0.197048 11.448906 -1.887429 -2.118540 -4.724838 5.757559 10.927058 -3.478216 3.048325 -6.105046 -4.890167 -5.024849 -0.950910 -0.601632 -0.772289 14.752452 -9.699055 2.319616 -12.931274 4.321195 -15.033517 1.553200 5.376696 16.789655 1.004508 -4.466208 1.185038 0.704940 -0.583649 0.465750 -9.603581 0.917339 -1.039394 6.781926 -2.647441 3.681915 5.045729 5.101373 -3.229720 8.282253 7.412567 -12.459312 -1.422237 8.362363 11.786196 -14.213134 5.668018 -12.285660 21.139524 -14.349168 16.177443 1.191483 6.081074 -5.650576 1.969508 -5.538060 5.556650 20.503425 13.541249 6.590692 -12.991191 -9.394167 -8.299565
-120.666191 -1.802093 -221.176010 -2.308034 0.412417 -0.850339 0.733764 7.657936 -1.097920 -0.816039 -1.153581 3.136673 4.166265 -7.150742 3.043286 -1.960218 0.272884 -3.816043 -0.482523 -0.487462 -0.652170 12.863935 -14.482418 2.501743 -8.989061 7.231121 -11.151240 -2.212425 7.313672 12.681065 -0.014705 -1.481537 1.033813 0.301072 -0.822087 0.825105 -8.186131 1.568405 -1.088169 6.013414 -2.220949 4.386168 4.434566 2.385572 -4.273372 7.288754 4.190207 -10.261457 -1.857841 8.134970 8.987952 -13.252060 6.402051 -11.556282 20.625683 -14.250948 15.716435 -0.012930 3.616583 -5.116523 0.519666 -4.204330 4.796587 23.055602 12.843624 7.324833 -14.516044 -9.586254 -9.644440
-123.979065 -1.695681 -227.181961 -1.006837 -0.602675 -0.394741 1.640191 2.481952 0.106648 -0.194879 2.275529 -0.008018 -0.538952 -8.285181 4.522317 0.418804 4.118367 -4.307304 -1.219004 -1.027656 -1.348310 10.182538 -13.508057 2.573372 -2.402170 5.282687 -6.724073 -6.238052 9.491481 7.286111 -1.297544 1.229735 0.864779 0.104236 -0.541608 1.269350 -7.161098 2.004882 -1.204718 5.785988 -0.735160 5.627726 3.470264 -1.557008 -5.869575 6.430488 0.564805 -7.350984 -2.011418 10.485367 5.349787 -13.485290 7.476242 -11.349873 21.866651 -16.189596 16.311642 -1.265641 0.854596 -3.673118 -0.096442 -0.939091 4.103075 24.870203 10.922279 7.184353 -15.837507 -10.660701 -10.427970
-126.713585 -0.991392 -232.804153 0.035800 -0.898663 -0.004967 2.872670 -0.881938 1.016253 -1.139791 2.388949 -1.939239 -1.675589 -5.754084 6.318644 0.525544 5.111840 -5.438922 -2.492717 -0.994686 -1.930253 6.035925 -4.599907 1.969218 0.517086 0.466093 -2.716455 -4.240978 6.027630 2.900486 -2.998980 2.410048 0.763391 -0.049131 -0.955791 1.784843 -6.579917 2.312304 -1.771896 5.748164 -0.276671 6.677746 3.596470 -2.831406 -7.020923 6.342212 -0.693844 -5.875628 -1.926815 12.917808 3.544798 -14.239877 9.644234 -10.913668 24.109914 -19.785084 17.396765 -1.831505 -0.262943 -1.371877 -0.330408 1.026245 2.442077 26.250446 10.075596 6.845616 -16.362896 -11.542873 -10.557680
-129.156357 -0.249332 -237.973099 0.550610 -0.449070 0.199012 4.240459 -3.651110 1.853618 -2.325961 -0.099706 -3.140314 -2.662590 -1.422254 6.984632 0.772878 5.576959 -5.611364 -3.583281 1.065180 -1.548976 1.679168 4.978532 1.259138 2.020699 -5.126975 3.134599 -0.783269 -0.367745 -2.802610 -4.135710 2.352317 0.716824 -0.096306 -1.642341 2.040824 -6.200783 2.623859 -2.171722 5.768170 0.243250 7.441771 3.789917 -3.405438 -7.730877 5.924381 -0.785014 -5.377927 -1.366092 15.485134 2.904175 -15.453647 11.944400 -10.588999 26.931727 -23.875207 18.940478 -1.820394 -0.590123 0.357281 -0.327369 1.899398 1.045746 26.476507 10.123445 6.191231 -16.242601 -12.350842 -10.124827
-131.603592 0.323635 -242.840698 0.600582 0.216836 0.228758 5.586989 -5.671350 2.594962 -3.265061 -2.993265 -3.911320 -3.378873 2.648189 7.597328 0.844111 5.774499 -5.750639 -4.761770 4.560398 -0.631231 -1.094458 10.840034 0.661301 1.802110 -8.974609 7.434036 2.525315 -6.998242 -6.942962 -4.675953 1.386129 0.666109 -0.054657 -1.917079 2.184776 -6.078926 2.781215 -2.439981 5.909629 0.906572 7.991141 3.929473 -3.676909 -8.132357 5.726334 -0.208975 -5.515394 -0.511527 17.573154 3.094604 -16.770805 13.467341 -10.336296 28.982902 -27.150880 20.017368 -1.556778 -0.346667 1.348452 -0.165563 2.272783 0.358393 26.168273 10.250300 5.581634 -15.914852 -12.886294 -9.609134
